<svg width="49" height="67" viewBox="0 0 49 67" fill="none" xmlns="http://www.w3.org/2000/svg">
<path d="M6.30192 33.5966C6.31575 33.5731 6.33053 33.5503 6.34622 33.528L26.1332 5.49643C26.3884 5.10291 26.7798 4.76373 27.2907 4.63382C27.8289 4.49696 28.3637 4.62856 28.7831 4.93701C29.1883 5.23497 29.453 5.66797 29.5924 6.1144C29.733 6.5645 29.7561 7.05449 29.6638 7.51586C29.6618 7.52583 29.6596 7.53577 29.6573 7.54567L25.8173 24.1007C25.8145 24.1128 25.8115 24.1249 25.8082 24.1369C25.7271 24.4355 25.6983 24.7639 25.7282 25.0897C25.7581 25.4159 25.8442 25.7134 25.9675 25.9569C26.0912 26.2012 26.2391 26.366 26.3755 26.4635C26.5079 26.5582 26.6246 26.5876 26.7187 26.5872L26.7232 26.5872L40.7213 26.5872H40.7232V27.5872C41.1017 27.5854 41.4727 27.7314 41.7933 28.008C42.1138 28.2847 42.3707 28.6807 42.5341 29.1502C42.6975 29.6196 42.7606 30.1431 42.7162 30.6599C42.6718 31.1767 42.5216 31.6656 42.2832 32.0697L6.30192 33.5966ZM6.30192 33.5966C5.97968 34.1427 5.78973 34.7788 5.73386 35.4289C5.67794 36.0797 5.75621 36.7448 5.96785 37.353C6.17883 37.9592 6.52471 38.5135 6.99972 38.9234C7.47915 39.3372 8.07715 39.5895 8.7251 39.5872M6.30192 33.5966L8.7251 39.5872M8.7251 39.5872H8.72319V38.5872L8.72788 39.5872C8.72695 39.5872 8.72603 39.5872 8.7251 39.5872Z" fill="url(#paint0_linear_1_2)" stroke="#2E4429" stroke-width="2" stroke-linecap="round" stroke-linejoin="round"/>
<defs>
<linearGradient id="paint0_linear_1_2" x1="24.7232" y1="5.58005" x2="24.7232" y2="60.5944" gradientUnits="userSpaceOnUse">
<stop offset="0.355" stop-color="#FAFF00"/>
<stop offset="1" stop-color="#A9FF81"/>
</linearGradient>
</defs>
</svg>
